<svg width="500" height="500" viewBox="0 0 500 500" fill="none" xmlns="http://www.w3.org/2000/svg">
<path d="M229.937 151.712H187.387V194.262H229.937V151.712Z" fill="black"/>
<path d="M313.752 142H251.778V203.974H313.752V142Z" fill="black"/>
<path d="M380.849 149.007H332.889V196.967H380.849V149.007Z" fill="black"/>
<path d="M157.117 224.532H112V269.649H157.117V224.532Z" fill="black"/>
<path d="M288.774 241.082H276.757V253.098H288.774V241.082Z" fill="black"/>
<path d="M387.999 215.96H325.739V278.221H387.999V215.96Z" fill="black"/>
<path d="M215.666 314.189H201.658V328.198H215.666V314.189Z" fill="black"/>
<path d="M318.572 285.388H246.959V357H318.572V285.388Z" fill="black"/>
<rect x="171.965" y="212.274" width="72.5392" height="72.5392" fill="black"/>
<rect x="120.406" y="307.719" width="36.2696" height="36.2696" fill="black"/>
<rect x="181.48" y="300.09" width="51.541" height="51.541" fill="black"/>
<rect x="263.573" y="227.551" width="40.0874" height="40.0874" fill="black"/>
</svg>
